# xmcd CD database file
#
# Track frame offsets:
#	150
#	8254
#	27527
#	48790
#	68689
#	87362
#	102835
#	118777
#	136860
#	156179
#	178471
#	197625
#	218294
#	234770
#	252106
#
# Disc length: 3562 seconds
#
# Revision: 0
# Processed by: cddbd v1.5.2PL0 Copyright (c) Steve Scherf et al.
# Submitted via: CDex 1.51
#
DISCID=b70de80f
DTITLE=Strong Arm Steady - Deep Hearted
DYEAR=2007
DGENRE=Hip Hop
TTITLE0=Intro feat. Jack Nicholson, The Game
TTITLE1=The Movement feat. Planet Asia
TTITLE2=U Aint Me feat. Chamillionaire, Ras Kass, Xzibit
TTITLE3=Bloody Money feat. Pop 'N Bullets, Jelly Roll
TTITLE4=Co-Operation feat. Dilated Peoples
TTITLE5=Clean Up feat. Saukrates, Black Thought
TTITLE6=One Step feat. Talib Kweli
TTITLE7=I Can't Wait feat. Tha Alkaholiks, Stylistic Jones
TTITLE8=King In The Deck feat. Planet Asia
TTITLE9=Come And Get Me feat. Ina Williams
TTITLE10=Streetlights feat. Talib Kweli
TTITLE11=My Homies feat. Blaqtoven
TTITLE12=Wreckless Words
TTITLE13=On The Grind
TTITLE14=Dirty Dirty feat. Juvenile
EXTD=YEAR: 2007
EXTT0=
EXTT1=
EXTT2=
EXTT3=
EXTT4=
EXTT5=
EXTT6=
EXTT7=
EXTT8=
EXTT9=
EXTT10=
EXTT11=
EXTT12=
EXTT13=
EXTT14=
PLAYORDER=
